<!DOCTYPE svg PUBLIC "-//W3C//DTD SVG 1.1//EN" "http://www.w3.org/Graphics/SVG/1.1/DTD/svg11.dtd">
<!-- Uploaded to: SVG Repo, www.svgrepo.com, Transformed by: SVG Repo Mixer Tools -->
<svg fill="#E65100" width="136px" height="136px" viewBox="0 -6 46 46" xmlns="http://www.w3.org/2000/svg" transform="rotate(0)" stroke="#E65100" stroke-width="1.38">
<g id="SVGRepo_bgCarrier" stroke-width="0"/>
<g id="SVGRepo_tracerCarrier" stroke-linecap="round" stroke-linejoin="round"/>
<g id="SVGRepo_iconCarrier"> <path id="_24.TV" data-name="24.TV" d="M46,37H2a1,1,0,0,1-1-1V8A1,1,0,0,1,2,7H46a1,1,0,0,1,1,1V36A1,1,0,0,1,46,37ZM45,9H3V35H45ZM21,16a.975.975,0,0,1,.563.2l7.771,4.872a.974.974,0,0,1,.261,1.715l-7.974,4.981A.982.982,0,0,1,21,28a1,1,0,0,1-1-1V17A1,1,0,0,1,21,16ZM15,39H33a1,1,0,0,1,0,2H15a1,1,0,0,1,0-2Z" transform="translate(-1 -7)" fill-rule="evenodd"/> </g>
</svg>